# AST/ASF file generated using VICON BodyLanguage
# -----------------------------------------------
:version 1.10
:name VICON
:units
  mass 1.0
  length 0.45
  angle deg
:documentation
   .ast/.asf automatically generated from VICON data using
   VICON BodyBuilder and BodyLanguage model FoxedUp or BRILLIANT.MOD
:root
   order TX TY TZ RX RY RZ
   axis XYZ
   position 0 0 0  
   orientation 0 0 0 
:bonedata
  begin
     id 1 
     name lhipjoint
     direction 0.612567 -0.751349 0.245431 
     length 2.42285 
     axis 0 0 0  XYZ
  end
  begin
     id 2 
     name lfemur
     direction 0.34202 -0.939693 0  
     length 7.11304  
     axis 0 0 20  XYZ
    dof rx ry rz
    limits (-160.0 20.0)
           (-70.0 70.0)
           (-60.0 70.0)
  end
  begin
     id 3 
     name ltibia
     direction 0.34202 -0.939693 0   
     length 7.84529   
     axis 0 0 20   XYZ
    dof rx
    limits (-10.0 170.0)
  end
  begin
     id 4 
     name lfoot
     direction 0.0779239 -0.214094 0.9737   
     length 1.97176   
     axis -90 7.62852e-016 20   XYZ
    dof rx rz
    limits (-45.0 90.0)
           (-70.0 20.0)
  end
  begin
     id 5 
     name ltoes
     direction 1.53565e-011 -4.21709e-011 1   
     length 0.993197   
     axis -90 7.62852e-016 20   XYZ
    dof rx
    limits (-90.0 20.0)
  end
  begin
     id 6 
     name rhipjoint
     direction -0.665722 -0.709315 0.231701   
     length 2.56642  
     axis 0 0 0  XYZ 
  end
  begin
     id 7 
     name rfemur
     direction -0.34202 -0.939693 0   
     length 7.32108   
     axis 0 0 -20   XYZ
    dof rx ry rz
    limits (-160.0 20.0)
           (-70.0 70.0)
           (-70.0 60.0)
  end
  begin
     id 8 
     name rtibia
     direction -0.34202 -0.939693 0   
     length 7.81254   
     axis 0 0 -20   XYZ
    dof rx
    limits (-10.0 170.0)
 end
 begin
     id 9 
     name rfoot
     direction -0.0832806 -0.228812 0.969902   
     length 2.08278  
     axis -90 -7.62852e-016 -20   XYZ
    dof rx rz
    limits (-45.0 90.0)
           (-20.0 70.0)
  end
  begin
     id 10 
     name rtoes
     direction -1.53589e-011 -4.22086e-011 1   
     length 1.04609   
     axis -90 -7.62852e-016 -20   XYZ
    dof rx
    limits (-90.0 20.0)
  end
  begin
     id 11 
     name lowerback
     direction -0.00506013 0.988403 -0.151766   
     length 2.01978   
     axis 0 0 0   XYZ
    dof rx ry rz
    limits (-20.0 45.0)
           (-30.0 30.0)
           (-30.0 30.0)
  end
  begin
     id 12 
     name upperback
     direction -0.00836389 0.99968 0.0238859   
     length 2.01276   
     axis 0 0 0   XYZ
    dof rx ry rz
    limits (-20.0 45.0)
           (-30.0 30.0)
           (-30.0 30.0)
  end
  begin
     id 13 
     name thorax
     direction -0.00684136 0.995386 0.0957043   
     length 2.07303   
     axis 0 0 0   XYZ
    dof rx ry rz
    limits (-20.0 45.0)
           (-30.0 30.0)
           (-30.0 30.0)
  end
  begin
     id 14 
     name lowerneck
     direction -0.0161045 0.999661 0.0204485   
     length 1.91243   
     axis 0 0 0   XYZ
    dof rx ry rz
    limits (-20.0 45.0)
           (-30.0 30.0)
           (-30.0 30.0)
  end
  begin
     id 15 
     name upperneck
     direction 0.0553583 0.990946 -0.122319   
     length 1.91574   
     axis 0 0 0   XYZ
    dof rx ry rz
    limits (-20.0 45.0)
           (-30.0 30.0)
           (-30.0 30.0)
  end
  begin
     id 16
     name head
     direction 0.0180273 0.998839 -0.0446756  
     length 1.92693  
     axis 0 0 0   XYZ
    dof rx ry rz
    limits (-20.0 45.0)
           (-30.0 30.0)
           (-30.0 30.0)
  end
  begin
     id 17 
     name lclavicle
     direction 0.945646 0.319323 -0.0615358  
     length 4.0076  
     axis 0 0 0   XYZ
    dof ry rz
    limits (-20.0 10.0)
           (0.0 20.0)
  end
  begin
     id 18 
     name lhumerus
     direction 1 -4.48967e-011 -2.79996e-027   
     length 5.64147   
     axis 180 -30 -90   XYZ
    dof rx ry rz
    limits (-60.0 90.0)
           (-90.0 90.0)
           (-90.0 90.0)
  end
  begin
     id 19
     name lradius
     direction 1 -4.48976e-011 -9.5122e-027   
     length 2.86444   
     axis 180 -30 -90   XYZ
    dof rx
    limits (-10.0 170.0)
  end
  begin
     id 20
     name lwrist
     direction 1 -4.48983e-011 -1.24047e-026   
     length 1.43222   
     axis 9.05591e-015 90 90   XYZ
    dof ry
    limits (-180.0 0.0)
 end
  begin
     id 21 
     name lhand
     direction 1 -4.4892e-011 -2.48094e-026   
     length 0.722123   
     axis 1.58305e-014 90 90   XYZ
    dof rx rz
    limits (-90.0 90.0)
           (-45.0 45.0)
  end
  begin
     id 22 
     name lfingers
     direction 1 -4.48895e-011 -4.96187e-026   
     length 0.582194   
     axis 3.1661e-014 90 90   XYZ
    dof rx
    limits (0.0 90.0)
  end
  begin
     id 23
     name lthumb
     direction 0.707107 -6.34961e-011 0.707107   
     length 0.835918   
     axis -90 45 2.85299e-015   XYZ
    dof rx rz
    limits (-45.0 45.0)
           (-45.0 45.0)
  end
  begin
     id 24 
     name rclavicle
     direction -0.932635 0.324218 -0.15835   
     length 3.65819  
     axis 0 0 0   XYZ 
    dof ry rz
    limits (-10.0 20.0)
           (-20.0 0.0)
  end
  begin
     id 25 
     name rhumerus
     direction -1 -4.48965e-011 -4.02296e-027  
     length 5.44729   
     axis 180 30 90   XYZ
    dof rx ry rz
    limits (-90.0 60.0)
           (-90.0 90.0)
           (-90.0 90.0)
  end
  begin
     id 26 
     name rradius
     direction -1 -4.48957e-011 -8.81087e-027   
     length 3.08821   
     axis 180 30 90   XYZ
    dof rx
    limits (-10.0 170.0)
  end
  begin
     id 27 
     name rwrist
     direction -1 -4.49015e-011 -1.24047e-026   
     length 1.5441   
     axis 9.05591e-015 -90 -90   XYZ
    dof ry
    limits (-180.0 0.0)
  end
  begin
     id 28
     name rhand
     direction -1 -4.4891e-011 -2.48094e-026   
     length 0.821049   
     axis 1.58305e-014 -90 -90   XYZ
    dof rx rz
    limits (-90.0 90.0)
           (-45.0 45.0)
  end
  begin
     id 29
     name rfingers
     direction -1 -4.48985e-011 -4.96187e-026   
     length 0.661951   
     axis 3.1661e-014 -90 -90   XYZ
    dof rx
    limits (0.0 90.0)
  end
  begin
     id 30
     name rthumb
     direction -0.707107 -6.34906e-011 0.707107   
     length 0.950433   
     axis -90 -45 -2.85299e-015   XYZ
    dof rx rz
    limits (-45.0 45.0)
           (-45.0 45.0)
  end
:hierarchy
  begin
    root lhipjoint rhipjoint lowerback
    lhipjoint lfemur
    lfemur ltibia
    ltibia lfoot
    lfoot ltoes
    rhipjoint rfemur
    rfemur rtibia
    rtibia rfoot
    rfoot rtoes
    lowerback upperback
    upperback thorax
    thorax lowerneck lclavicle rclavicle
    lowerneck upperneck
    upperneck head
    lclavicle lhumerus
    lhumerus lradius
    lradius lwrist
    lwrist lhand lthumb
    lhand lfingers
    rclavicle rhumerus
    rhumerus rradius
    rradius rwrist
    rwrist rhand rthumb
    rhand rfingers
  end

#!OML:ASF F:\VICON\USERDATA\INSTALL\rory3\rory3.ASF
:FULLY-SPECIFIED
:DEGREES
1427
root 3.32764 17.5923 0.0101918 6.68851 112.009 6.61933
lowerback 9.4013 5.11127 6.36769
upperback 1.5273 7.46355 -0.784246
thorax -2.73081 3.68935 -5.17588
lowerneck -3.02118 -11.935 -6.07738
upperneck 2.07812 -16.098 12.0112
head 2.58839 -7.80991 3.86455
rclavicle 6.05191e-014 1.70582e-014
rhumerus -3.77334 15.5264 -46.0296
rradius 56.0446
rwrist 26.543
rhand 9.45542 10.0743
rfingers 7.12502
rthumb 34.6096 -16.572
lclavicle 6.05191e-014 1.70582e-014
lhumerus -7.76186 -10.5114 33.2877
lradius 53.8411
lwrist 21.1025
lhand -16.9865 11.0346
lfingers 7.12502
lthumb 9.24837 40.8118
rfemur 2.62663 -7.08351 22.4063
rtibia 15.1908
rfoot -27.8119 -17.4962
rtoes -3.06074
lfemur -11.525 -5.05379 -14.0658
ltibia 22.0705
lfoot -7.1939 -16.3439
ltoes 6.76085
1428
root 3.32418 17.5945 -0.00632244 5.99016 111.787 5.8788
lowerback 9.32705 5.10051 6.14408
upperback 1.46443 7.42453 -0.680121
thorax -2.80319 3.66558 -4.93922
lowerneck -2.91437 -11.8961 -5.9662
upperneck 1.89994 -16.0322 11.9859
head 2.50123 -7.78514 3.85915
rclavicle 1.34552e-014 -5.96354e-015
rhumerus -3.90876 15.1361 -46.72
rradius 56.3751
rwrist 26.5874
rhand 9.53302 10.1716
rfingers 7.12502
rthumb 34.6833 -16.4579
lclavicle 1.34552e-014 -5.96354e-015
lhumerus -7.46244 -10.6679 32.9473
lradius 53.6161
lwrist 21.2639
lhand -16.7778 10.6524
lfingers 7.12502
lthumb 9.44977 40.4205
rfemur 2.55711 -7.16489 21.9641
rtibia 15.3629
rfoot -27.6742 -17.2999
rtoes -3.35665
lfemur -11.3973 -5.01324 -14.464
ltibia 21.986
lfoot -7.20671 -16.2347
ltoes 7.1898
1429
root 3.31852 17.5944 -0.0200971 5.39541 111.622 5.1851
lowerback 9.23453 5.07761 5.95786
upperback 1.37813 7.37136 -0.603671
thorax -2.88261 3.63372 -4.75005
lowerneck -2.86982 -11.8617 -5.83203
upperneck 1.75584 -15.9751 11.9964
head 2.43652 -7.75988 3.855
rclavicle 1.10437e-013 -9.93923e-016
rhumerus -4.06757 14.6954 -47.4236
rradius 56.7115
rwrist 26.6483
rhand 9.27233 10.1858
rfingers 7.12502
rthumb 34.4358 -16.5001
lclavicle 1.10437e-013 -9.93923e-016
lhumerus -7.13862 -10.8378 32.5907
lradius 53.4796
lwrist 21.4454
lhand -16.7362 10.3988
lfingers 7.12502
lthumb 9.48986 40.1651
rfemur 2.37816 -7.18397 21.591
rtibia 15.5935
rfoot -27.6515 -17.1265
rtoes -3.43272
lfemur -11.3466 -4.97699 -14.8184
ltibia 21.8558
lfoot -7.17993 -16.1254
ltoes 7.17133
1430
root 3.3131 17.594 -0.0315156 5.33042 111.439 5.10539
lowerback 9.23799 5.04944 5.97974
upperback 1.27835 7.34241 -0.44537
thorax -3.0108 3.61022 -4.60357
lowerneck -2.83761 -11.8452 -5.80566
upperneck 1.62349 -15.9399 11.9748
head 2.38496 -7.74749 3.85396
rclavicle 2.08227e-014 -9.14409e-015
rhumerus -4.26581 14.2751 -48.0518
rradius 57.1164
rwrist 26.5311
rhand 8.94005 10.067
rfingers 7.12502
rthumb 34.1203 -16.6899
lclavicle 2.08227e-014 -9.14409e-015
lhumerus -6.93877 -10.9386 32.3684
lradius 53.4784
lwrist 21.5036
lhand -16.9878 10.4121
lfingers 7.12502
lthumb 9.24708 40.1893
rfemur 2.17107 -6.93991 21.5151
rtibia 15.9334
rfoot -27.8765 -17.0541
rtoes -3.12895
lfemur -11.2206 -4.87903 -14.9115
ltibia 21.6533
lfoot -7.13371 -15.9957
ltoes 7.10537
1431
root 3.30993 17.5952 -0.0455372 5.03137 111.184 4.84999
lowerback 9.28616 5.01537 5.93169
upperback 1.18966 7.30156 -0.30541
thorax -3.15967 3.58139 -4.4411
lowerneck -2.87163 -11.7999 -5.83917
upperneck 1.66313 -15.879 11.9777
head 2.39978 -7.71463 3.86035
rclavicle 6.67916e-014 -2.38542e-015
rhumerus -4.45534 14.0767 -48.6276
rradius 57.5815
rwrist 26.2555
rhand 9.13663 9.95452
rfingers 7.12502
rthumb 34.307 -16.7606
lclavicle 6.67916e-014 -2.38542e-015
lhumerus -6.86431 -10.9198 32.167
lradius 53.5931
lwrist 21.421
lhand -17.328 10.4627
lfingers 7.12502
lthumb 8.9188 40.2542
rfemur 2.02548 -6.72996 21.3276
rtibia 16.3199
rfoot -28.0513 -16.9037
rtoes -3.04183
lfemur -10.9791 -4.7655 -15.0962
ltibia 21.4217
lfoot -7.11793 -15.8251
ltoes 6.93847
1432
root 3.30696 17.597 -0.0628269 4.26068 110.977 4.01687
lowerback 9.21655 4.99597 5.76021
upperback 1.10595 7.25558 -0.261335
thorax -3.24083 3.55417 -4.29635
lowerneck -2.89535 -11.7776 -5.85779
upperneck 1.68781 -15.8489 11.9988
head 2.4116 -7.69715 3.86881
rclavicle 8.38126e-014 2.127e-014
rhumerus -4.77391 13.7867 -49.207
rradius 58.0609
rwrist 26.2373
rhand 9.29387 10.1971
rfingers 7.12502
rthumb 34.4563 -16.4842
lclavicle 8.38126e-014 2.127e-014
lhumerus -6.63764 -10.9863 31.9622
lradius 53.6547
lwrist 21.5245
lhand -17.4021 10.2953
lfingers 7.12502
lthumb 8.8473 40.0899
rfemur 1.86206 -6.72915 20.891
rtibia 16.6215
rfoot -28.03 -16.7671
rtoes -3.3122
lfemur -10.8137 -4.64512 -15.5161
ltibia 21.2074
lfoot -7.1223 -15.7126
ltoes 6.52678
1433
root 3.30341 17.5991 -0.0785042 3.11287 110.857 2.7308
lowerback 9.08851 4.96476 5.45189
upperback 1.0243 7.17449 -0.263754
thorax -3.30133 3.51209 -4.11532
lowerneck -2.82983 -11.7565 -5.87792
upperneck 1.55303 -15.8087 12.0098
head 2.35992 -7.68319 3.88599
rclavicle -2.48481e-015 -1.66979e-014
rhumerus -5.19657 13.2903 -49.805
rradius 58.5764
rwrist 26.3938
rhand 9.39979 10.4452
rfingers 7.12502
rthumb 34.5568 -16.2132
lclavicle -2.48481e-015 -1.66979e-014
lhumerus -6.33937 -11.0031 31.8433
lradius 53.721
lwrist 21.8074
lhand -17.239 9.88109
lfingers 7.12502
lthumb 9.00471 39.6689
rfemur 1.72873 -6.8236 20.2892
rtibia 16.7956
rfoot -28.0365 -16.5594
rtoes -3.16917
lfemur -10.7406 -4.62734 -16.0973
ltibia 21.0457
lfoot -7.09984 -15.5811
ltoes 6.24469
1434
root 3.30158 17.5987 -0.0897947 2.78621 110.726 2.4432
lowerback 9.04448 4.92537 5.41358
upperback 0.988103 7.12149 -0.128331
thorax -3.34251 3.48397 -3.94801
lowerneck -2.86948 -11.7339 -5.86244
upperneck 1.50138 -15.7696 11.9379
head 2.34019 -7.6656 3.86521
rclavicle -2.13694e-015 3.18055e-015
rhumerus -5.5928 12.7928 -50.3203
rradius 59.0941
rwrist 26.679
rhand 9.28079 10.6112
rfingers 7.12502
rthumb 34.4439 -16.0729
lclavicle -2.13694e-015 3.18055e-015
lhumerus -6.07518 -10.8115 31.8417
lradius 53.8399
lwrist 21.9744
lhand -17.2591 9.34268
lfingers 7.12502
lthumb 8.9853 39.1313
rfemur 1.77533 -6.76424 20.1065
rtibia 16.8305
rfoot -28.0539 -16.4252
rtoes -2.89303
lfemur -10.6048 -4.55202 -16.2607
ltibia 20.9786
lfoot -7.08888 -15.5405
ltoes 6.18504
1435
root 3.30279 17.5961 -0.0991499 3.53046 110.608 3.38637
lowerback 9.04133 4.82143 5.75475
upperback 0.968821 7.03033 0.140006
thorax -3.36403 3.43462 -3.85031
lowerneck -2.98374 -11.6722 -5.83953
upperneck 1.57575 -15.6869 11.8598
head 2.36509 -7.62 3.83601
rclavicle 2.73329e-014 -2.78299e-015
rhumerus -5.82039 12.4844 -50.7848
rradius 59.4524
rwrist 26.9364
rhand 8.62186 10.801
rfingers 7.12502
rthumb 33.8181 -16.0229
lclavicle 2.73329e-014 -2.78299e-015
lhumerus -5.89346 -10.4449 31.8336
lradius 53.8643
lwrist 21.9891
lhand -17.3019 8.86896
lfingers 7.12502
lthumb 8.94398 38.6594
rfemur 1.99206 -6.63206 20.4185
rtibia 16.7061
rfoot -28.0283 -16.4138
rtoes -2.97575
lfemur -10.4462 -4.39279 -15.9394
ltibia 21.0287
lfoot -7.04632 -15.6078
ltoes 6.54887
1436
root 3.30729 17.5939 -0.108216 4.22528 110.499 4.26698
lowerback 8.97813 4.69903 6.03946
upperback 0.958814 6.90521 0.400211
thorax -3.35188 3.37104 -3.72035
lowerneck -3.11625 -11.5845 -5.77865
upperneck 1.67098 -15.5702 11.7495
head 2.39067 -7.5569 3.79294
rclavicle 3.62782e-015 2.38542e-015
rhumerus -6.014 12.1007 -51.2981
rradius 59.8259
rwrist 27.0875
rhand 8.25623 11.0611
rfingers 7.12502
rthumb 33.4706 -15.8387
lclavicle 3.62782e-015 2.38542e-015
lhumerus -5.78576 -9.99387 31.8475
lradius 53.8769
lwrist 22.012
lhand -17.0125 8.3229
lfingers 7.12502
lthumb 9.2233 38.1012
rfemur 2.28834 -6.57013 20.6967
rtibia 16.4465
rfoot -27.8359 -16.5001
rtoes -3.17638
lfemur -10.3312 -4.17877 -15.6407
ltibia 21.1913
lfoot -7.05442 -15.7614
ltoes 7.03076
1437
root 3.30997 17.5948 -0.117273 4.59382 110.265 4.79397
lowerback 8.97912 4.63886 6.22479
upperback 0.932799 6.85442 0.586949
thorax -3.38685 3.34293 -3.62627
lowerneck -3.22388 -11.5213 -5.71083
upperneck 1.71519 -15.4837 11.6594
head 2.40102 -7.51043 3.75573
rclavicle -3.96575e-014 -1.31198e-014
rhumerus -6.35127 11.6953 -51.7618
rradius 60.3622
rwrist 27.0788
rhand 8.15312 11.327
rfingers 7.12502
rthumb 33.3726 -15.5938
lclavicle -3.96575e-014 -1.31198e-014
lhumerus -5.59215 -9.59788 31.8881
lradius 53.8987
lwrist 22.1346
lhand -17.0121 7.79321
lfingers 7.12502
lthumb 9.22366 37.5715
rfemur 2.55718 -6.41784 20.8338
rtibia 16.1862
rfoot -27.5881 -16.6121
rtoes -3.61401
lfemur -10.2237 -3.93127 -15.4855
ltibia 21.3752
lfoot -7.16937 -15.8189
ltoes 7.07274
